<svg id="Layer_1" data-name="Layer 1" xmlns="http://www.w3.org/2000/svg" viewBox="0 0 273.09 273.12"><defs><style>.cls-1{fill:none;stroke:#7a2031;stroke-miterlimit:10;}.cls-2{fill:#7a2031;}</style></defs><title>New Logo Geisha</title><path class="cls-1" d="M559.77,547.06c6.64-3.56,10.84-9.13,14.13-15.54s5.29-13.12,4.59-20.51c2.48.25,4.84.46,7.2.73q6,.68,11.9,1.39c4.75.56,9.51,1.13,14.26,1.65.86.1,1.13.52,1.27,1.28a32.39,32.39,0,0,1-.19,11.45A72.07,72.07,0,0,1,605.32,549a66,66,0,0,1-10.13,14.79c-2.46,2.61-5.19,5-7.78,7.43-.64.62-1.11.5-1.72-.08q-7.92-7.44-15.89-14.83C566.49,553.26,563.17,550.2,559.77,547.06Zm8.69,4.28c6,6.1,11.95,12.11,17.87,18.14.49.49.9.59,1.43.13,1.14-1,2.34-1.93,3.43-3a62.29,62.29,0,0,0,9.64-12.06c6.37-10.14,10.89-21,11.84-33a40.38,40.38,0,0,0-.21-5l-27.7-1.66.62,1.46a23.29,23.29,0,0,1,1.53,14.51c-1.72,7.7-6.25,13.38-12.83,17.5C572.33,549.41,570.43,550.28,568.46,551.34Z" transform="translate(-363.79 -363.34)"/><path class="cls-1" d="M440.82,452.74c-6.59,3.57-10.78,9.14-14.06,15.56s-5.29,13.1-4.58,20.5L413,487.75c-4.17-.47-8.34-.91-12.5-1.39-3.89-.44-7.76-.94-11.65-1.36a1.34,1.34,0,0,1-1.35-1.33c-1-5.78-.09-11.4,1.45-16.95a80.16,80.16,0,0,1,15.85-30.13,49.12,49.12,0,0,1,8.45-8.1,1.06,1.06,0,0,1,1.64.08q7.92,7.44,15.89,14.82,4.89,4.53,9.79,9A1.36,1.36,0,0,1,440.82,452.74Zm-24.93,32.2c-.26-.65-.41-1.05-.59-1.45a23.49,23.49,0,0,1,.6-20.61A28.67,28.67,0,0,1,429.3,450l3-1.47c-6.06-6.14-12-12.15-17.92-18.18a.93.93,0,0,0-1.52-.06c-1.9,1.76-4,3.38-5.7,5.3a79,79,0,0,0-14.47,23.58,64.1,64.1,0,0,0-4.5,17,17.65,17.65,0,0,0,.28,7.2Z" transform="translate(-363.79 -363.34)"/><path class="cls-1" d="M547.49,440.39c-3.55-6.57-9.14-10.8-15.59-14.1s-13.11-5.25-20.48-4.56c.53-4.58,1.05-9,1.55-13.44.62-5.52,1.2-11,1.81-16.54a26,26,0,0,1,.51-3.43,1.75,1.75,0,0,1,1-1.14,28,28,0,0,1,8.23-.3,56.62,56.62,0,0,1,12.29,2.66,82.09,82.09,0,0,1,13.51,5.86,70.83,70.83,0,0,1,14.34,10c2.52,2.3,4.69,5,7,7.5.57.6.45,1.06-.09,1.64q-5.28,5.58-10.5,11.22-6.64,7.17-13.27,14.37A2.64,2.64,0,0,1,547.49,440.39Zm4.23-8.68c1.14-1.06,2.24-2,3.29-3.07q7.37-7.26,14.7-14.54c.5-.49,1-1,.31-1.69-2.35-2.39-4.53-5-7-7.17A73.05,73.05,0,0,0,545.33,394c-7.49-3.46-15.24-6-23.53-6.51a43.08,43.08,0,0,0-4.86.25c-.56,9.38-1.1,18.44-1.65,27.67l1.5-.62a23.68,23.68,0,0,1,20.92.82,28.48,28.48,0,0,1,11.52,11.25C550.14,428.43,550.87,430.06,551.72,431.71Z" transform="translate(-363.79 -363.34)"/><path class="cls-1" d="M489.2,421.73c-7.41-.69-14.09,1.32-20.51,4.61s-12,7.49-15.52,14.07c-1.56-1.66-3.13-3.3-4.68-5-2.51-2.69-5-5.39-7.51-8.09q-6-6.51-12.1-13c-.48-.52-.38-.92,0-1.46a53.81,53.81,0,0,1,10.25-10.2,82.26,82.26,0,0,1,22.59-12.45,55.32,55.32,0,0,1,15.14-3.47,48,48,0,0,1,7.65.44c.33,0,.8.74.86,1.18.45,3.36.81,6.74,1.21,10.11.63,5.35,1.28,10.7,1.89,16.05C488.76,416.88,489,419.21,489.2,421.73ZM449,431.81c3-7.24,7.54-13.07,14.61-16.5s14.41-3.36,21.76.19c-.55-9.33-1.1-18.43-1.64-27.55a12.87,12.87,0,0,0-1.42-.3,36.16,36.16,0,0,0-12.81,1.3,80.89,80.89,0,0,0-26.93,12.47,54.64,54.64,0,0,0-11.72,10.74c-.66.84-.59,1.29.11,2,4.58,4.48,9.13,9,13.7,13.5C446.06,429,447.48,430.35,449,431.81Z" transform="translate(-363.79 -363.34)"/><path class="cls-1" d="M440.85,547.05c-2.36,2.23-4.67,4.43-7,6.6-2.72,2.54-5.47,5.06-8.2,7.59-3.58,3.32-7.17,6.64-10.73,10a1.07,1.07,0,0,1-1.65.06,56,56,0,0,1-11.48-12,82.73,82.73,0,0,1-11.08-20.78,56.3,56.3,0,0,1-3.5-15.38,44.65,44.65,0,0,1,.42-7.29,1.51,1.51,0,0,1,1-1c4.23-.55,8.48-1,12.72-1.5l13.44-1.59c2.4-.27,4.8-.49,7.34-.75-.69,7.36,1.31,14,4.58,20.47S434.24,543.46,440.85,547.05Zm-52.41-30.57c-.11.36-.23.73-.32,1.11a3.87,3.87,0,0,0,0,.48,36.28,36.28,0,0,0,1.29,12.58,81,81,0,0,0,12.45,26.94,53.51,53.51,0,0,0,10.83,11.8c.79.62,1.2.58,1.87-.1,4.26-4.35,8.56-8.67,12.83-13,1.62-1.64,3.2-3.31,4.91-5.08-7.32-3.05-13.13-7.6-16.55-14.67s-3.31-14.41.22-21.71Z" transform="translate(-363.79 -363.34)"/><path class="cls-1" d="M511.56,578.06c7.24.67,13.94-1.31,20.35-4.58s12-7.49,15.61-14.15c.27.33.52.65.79.94,2.41,2.57,4.83,5.12,7.23,7.7q5.81,6.24,11.58,12.5c1.5,1.62,3,3.23,4.53,4.81a1.05,1.05,0,0,1,.09,1.64A57.26,57.26,0,0,1,559,599a81.19,81.19,0,0,1-21.47,11,45.27,45.27,0,0,1-12.73,2.79c-2.66.1-5.33,0-8-.1-1,0-1.51-.51-1.62-1.61-.57-5.64-1.21-11.27-1.86-16.89-.6-5.27-1.26-10.53-1.89-15.8A1.6,1.6,0,0,1,511.56,578.06Zm5.38,33.9a38.18,38.18,0,0,0,4.68.29,54.46,54.46,0,0,0,14.18-2.75,83,83,0,0,0,22.42-11.25,54,54,0,0,0,11.61-10.68c.62-.8.58-1.21-.1-1.87-4.18-4.1-8.32-8.23-12.49-12.34-1.81-1.78-3.64-3.54-5.57-5.43-3,7.31-7.58,13.12-14.65,16.55s-14.41,3.34-21.74-.21C515.84,593.58,516.38,602.66,516.94,612Z" transform="translate(-363.79 -363.34)"/><path class="cls-1" d="M578.48,488.76c.72-7.37-1.3-14.1-4.61-20.54s-7.49-12-14.06-15.49c1.64-1.55,3.25-3.09,4.88-4.61,2.55-2.37,5.12-4.72,7.67-7.09q6.72-6.24,13.44-12.52a1,1,0,0,1,1.55-.05,56.76,56.76,0,0,1,11.71,12.26A80.89,80.89,0,0,1,610,461.31c1.65,4.65,3.11,9.36,3.29,14.33.09,2.7-.09,5.41-.17,8.11,0,.81-.46,1.15-1.29,1.24-3.41.35-6.82.76-10.23,1.17-5.27.62-10.54,1.27-15.81,1.87C583.4,488.31,581,488.51,578.48,488.76Zm-10.15-40.24c7.37,3.09,13.19,7.62,16.61,14.69s3.32,14.42-.21,21.73l27.53-1.65c.1-.44.24-.9.3-1.37A35.85,35.85,0,0,0,611.25,469a81.07,81.07,0,0,0-12.69-27.22,54.44,54.44,0,0,0-10.63-11.49c-.71-.55-1.13-.49-1.7.11-1.59,1.69-3.22,3.35-4.85,5Z" transform="translate(-363.79 -363.34)"/><path class="cls-1" d="M489.22,578c-.82,7.39-1.6,14.56-2.41,21.73-.43,3.8-.93,7.6-1.34,11.41a1.49,1.49,0,0,1-1.45,1.53,35.83,35.83,0,0,1-13.8-.71,73.29,73.29,0,0,1-19-7.13,69.78,69.78,0,0,1-16.49-11.66c-2-2-3.86-4.24-5.81-6.36a.92.92,0,0,1,0-1.45q5.25-5.61,10.48-11.23c3.81-4.1,7.59-8.24,11.42-12.32a25.8,25.8,0,0,1,2.55-2.14c3.33,6.22,8.91,10.45,15.36,13.74S481.82,578.74,489.22,578ZM449,567.91l-6.88,6.77c-3.76,3.72-7.51,7.45-11.29,11.14-.6.58-.63,1-.09,1.61,1,1.07,1.82,2.23,2.82,3.26A73.34,73.34,0,0,0,455,605.55c7.58,3.57,15.43,6.15,23.84,6.69a39.28,39.28,0,0,0,4.88-.25c.56-9.36,1.1-18.43,1.66-27.73q-11.07,5.38-21.79.19C456.54,581,452,575.19,449,567.91Z" transform="translate(-363.79 -363.34)"/><path class="cls-1" d="M486.85,486.71c-1.05-.87-2.11-1.73-3.14-2.63q-7.2-6.33-14.4-12.68c-5.94-5.23-11.9-10.43-17.83-15.67-5.09-4.5-10.15-9-15.24-13.55-6-5.29-12-10.58-18-15.81a2.94,2.94,0,0,1-1-2.88,7.77,7.77,0,0,1,7.85-6.67,2,2,0,0,1,1.31.61c3.43,3.79,6.83,7.62,10.22,11.45,3.7,4.19,7.39,8.41,11.08,12.6q6.06,6.9,12.13,13.77c3.7,4.19,7.43,8.36,11.13,12.56q5.75,6.53,11.45,13.08c1.47,1.69,2.93,3.39,4.39,5.08a3.76,3.76,0,0,1,.3.47Z" transform="translate(-363.79 -363.34)"/><path class="cls-1" d="M513.85,513l4.77,4.14q6.76,5.91,13.53,11.83,8,7.05,16,14.14l17.62,15.56q7.77,6.85,15.54,13.74a10,10,0,0,0,1,.84c1.18.74,1.25,1.87,1.09,3.06a7.72,7.72,0,0,1-7.66,6.6,2.42,2.42,0,0,1-1.53-.65c-3.5-3.89-6.94-7.83-10.4-11.76s-7.22-8.13-10.81-12.21c-4.08-4.62-8.13-9.25-12.21-13.87-3.67-4.16-7.38-8.29-11-12.46q-6.3-7.15-12.56-14.36-1.7-1.93-3.36-3.9a2.31,2.31,0,0,1-.24-.47Z" transform="translate(-363.79 -363.34)"/><path class="cls-1" d="M513.48,486.38c1.38-1.59,2.75-3.18,4.13-4.76q7.62-8.7,15.25-17.4c4.81-5.46,9.66-10.88,14.47-16.34s9.54-10.87,14.32-16.29q5.52-6.24,11.07-12.47c.1-.12.22-.23.32-.35,2-2.27,3.51-2.6,6.21-1.14a7.37,7.37,0,0,1,4.14,6.8,2.45,2.45,0,0,1-.72,1.63q-6.31,5.7-12.71,11.33L553.5,451.9l-16.29,14.35-17.46,15.37c-1.83,1.61-3.69,3.19-5.54,4.77a2.12,2.12,0,0,1-.47.25Z" transform="translate(-363.79 -363.34)"/><path class="cls-1" d="M487.17,513.38c-.94,1.1-1.86,2.22-2.81,3.31q-8.25,9.42-16.52,18.84c-5.92,6.72-11.88,13.41-17.8,20.12q-8.46,9.57-16.88,19.18c-2.08,2.37-4.25,4.67-6.26,7.1a3,3,0,0,1-3.09,1,7.78,7.78,0,0,1-6.55-7.84,1.92,1.92,0,0,1,.53-1.22q5.79-5.22,11.64-10.37c3.72-3.29,7.46-6.54,11.18-9.81l15.21-13.4c3.26-2.88,6.5-5.79,9.77-8.67q7.29-6.4,14.6-12.79l6.32-5.52a1.83,1.83,0,0,1,.39-.21Z" transform="translate(-363.79 -363.34)"/><path class="cls-1" d="M514.1,499.69a9.15,9.15,0,0,1,1.26-.28c6.67-.66,13.35-1.29,20-2,5.6-.55,11.2-1.13,16.8-1.69s11.36-1.12,17-1.7L589.72,492c5.27-.55,10.55-1.11,15.83-1.65,2.62-.27,5.24-.57,7.86-.74a2.49,2.49,0,0,1,1.66.66,12,12,0,0,1,3.61,7.79,14.48,14.48,0,0,1-1.92,9.48l-.32.51c-1.05,1.48-2.08,2.43-4.3,2.1-5.21-.76-10.48-1.05-15.72-1.56-4-.38-8.1-.8-12.15-1.21-5.76-.57-11.53-1.12-17.29-1.71-4.48-.45-9-.95-13.45-1.4-5.72-.58-11.44-1.12-17.16-1.69l-11.92-1.22-9.42-1a4.52,4.52,0,0,1-.95-.34Zm8.61.1V500l4.27.38c5.49.48,11,1,16.48,1.41,5.33.45,10.66.86,16,1.29l14.2,1.16c3.07.25,6.14.47,9.21.74,4.09.35,8.17.76,12.26,1.12,2.67.24,5.35.34,8,.67,1.7.21,2,.23,2.71-1.3a12.85,12.85,0,0,0,.9-6.95,28.77,28.77,0,0,0-1.14-4.59c-.29-1-1.11-1.09-2-1-4.17.41-8.34.81-12.51,1.17-2.51.22-5,.34-7.54.55-4.17.36-8.33.78-12.51,1.14-2.54.22-5.1.34-7.65.56-4.25.36-8.51.78-12.77,1.14-2.42.21-4.85.35-7.28.56-4.25.36-8.5.78-12.76,1.15C527.94,499.4,525.32,499.58,522.71,499.79Z" transform="translate(-363.79 -363.34)"/><path class="cls-1" d="M486.58,500.1c-.75.13-1.5.32-2.25.39-4.81.47-9.62.88-14.43,1.37S460,503,455,503.47c-3.69.37-7.39.63-11.09,1-6,.61-12,1.29-17.95,1.9-4.29.44-8.59.79-12.88,1.23-6,.6-12,1.26-18,1.88-2.62.27-5.24.55-7.86.72a2.5,2.5,0,0,1-1.68-.62c-5-4.67-4.95-14.69-.07-19.31a2.61,2.61,0,0,1,1.76-.71c5.64.5,11.27,1.09,16.9,1.65l16.91,1.7,17.15,1.71L451.82,496c7.5.78,15,1.58,22.5,2.34,3.65.37,7.31.68,11,1a8.8,8.8,0,0,1,1.3.32ZM478,500v-.18c-3.36-.3-6.73-.61-10.1-.9-4.73-.41-9.47-.8-14.2-1.2q-8.29-.72-16.59-1.42c-5.25-.44-10.51-.84-15.76-1.28-4.45-.37-8.9-.77-13.35-1.16-3.66-.32-7.32-.62-11-1a1.57,1.57,0,0,0-1.9,1,13.79,13.79,0,0,0-.85,2.35c-.56,3.23-.65,6.43.79,9.52a1.78,1.78,0,0,0,2.1,1.09q6.25-.62,12.52-1.16c2.51-.22,5-.34,7.53-.56,4.17-.36,8.34-.78,12.51-1.14,2.54-.22,5.1-.34,7.64-.56,4.22-.36,8.43-.77,12.65-1.13,2.5-.22,5-.35,7.52-.57,4.06-.36,8.11-.78,12.16-1.13C472.4,500.38,475.18,500.21,478,500Z" transform="translate(-363.79 -363.34)"/><path class="cls-1" d="M500.48,513.62a8.38,8.38,0,0,1,.32,1.29c.51,5.17,1,10.34,1.5,15.51q1.06,10.73,2.17,21.44c.46,4.57.94,9.14,1.4,13.7.41,4.13.79,8.27,1.2,12.4q.84,8.46,1.69,16.91c.57,5.64,1,11.3,1.79,16.9.32,2.14-.59,3.12-2,4.14-5,3.68-13.38,3.15-17.8-1.17a2.64,2.64,0,0,1-.75-1.86c.33-4.1.77-8.19,1.18-12.28L493.36,579c.57-5.64,1.12-11.28,1.69-16.92l2.16-21.44q.85-8.4,1.69-16.8c.31-3,.62-6,1-9.06a8,8,0,0,1,.32-1.19Zm-.05,8.45c-.19.25-.26.31-.27.37-.43,5.5-.84,11-1.3,16.49-.55,6.69-1.13,13.37-1.7,20.05q-.6,7.21-1.19,14.44c-.25,3-.45,6-.71,9-.3,3.38-.64,6.75-.95,10.12-.32,3.54-.63,7.08-1,10.62-.08.9,0,1.67,1,2a16.09,16.09,0,0,0,2.34.86c3.27.55,6.51.67,9.63-.84a1.73,1.73,0,0,0,1-2c-.39-4.21-.79-8.42-1.15-12.64-.22-2.46-.34-4.94-.56-7.41-.36-4.17-.78-8.33-1.14-12.51-.22-2.54-.34-5.1-.55-7.64-.37-4.26-.78-8.52-1.15-12.78-.21-2.42-.34-4.85-.55-7.27-.37-4.3-.79-8.59-1.16-12.89C500.82,527.42,500.64,524.84,500.43,522.07Z" transform="translate(-363.79 -363.34)"/><path class="cls-1" d="M500.07,486.11c-.11-.77-.27-1.55-.34-2.33-.46-4.81-.89-9.62-1.36-14.44-.55-5.6-1.13-11.2-1.69-16.79q-.94-9.24-1.89-18.46c-.41-4-.8-8.1-1.2-12.15q-.85-8.58-1.69-17.17c-.41-4-.81-8.1-1.24-12.14-.19-1.87-.52-3.72-.64-5.58a2.75,2.75,0,0,1,.65-1.9,12.22,12.22,0,0,1,8.51-3.64,14.36,14.36,0,0,1,8.86,2c.24.15.48.29.7.46a3.8,3.8,0,0,1,1.81,4.1c-.74,5.17-1.06,10.4-1.55,15.6q-.6,6.26-1.24,12.51c-.54,5.28-1.1,10.56-1.65,15.84s-1.11,10.55-1.63,15.83c-.37,3.78-.66,7.56-1,11.34-.53,5.24-1.11,10.47-1.65,15.71-.35,3.38-.66,6.76-1,10.14a6,6,0,0,1-.31,1.08Zm.16-8.59h.18c.29-3.37.59-6.74.88-10.12.41-4.73.8-9.46,1.21-14.2.47-5.53,1-11.06,1.42-16.59q.68-8.06,1.31-16.12c.38-4.61.73-9.22,1.13-13.83.29-3.38.62-6.76,1-10.14.1-.9-.09-1.57-1-1.9a13.31,13.31,0,0,0-2.35-.86c-3.27-.53-6.51-.67-9.63.85a1.73,1.73,0,0,0-1,2.05c.4,4.13.8,8.27,1.15,12.41.22,2.5.33,5,.55,7.53.37,4.33.79,8.66,1.16,13,.21,2.43.34,4.87.55,7.29.36,4.18.78,8.36,1.14,12.53.21,2.51.34,5,.55,7.52.37,4.22.79,8.43,1.15,12.64C499.84,472.21,500,474.87,500.23,477.52Z" transform="translate(-363.79 -363.34)"/><path class="cls-1" d="M465.29,487.19c.69,2.24.19,4.28-.48,6.43-1.83-.18-3.65-.32-5.47-.53-3.33-.37-6.66-.78-10-1.18L436,490.33c-2.42-.28-4.84-.56-7.26-.79-.63-.05-.86-.25-1-.88-.87-3.47-.19-6.85.67-10.18a37.74,37.74,0,0,1,9.42-16.9,45.29,45.29,0,0,1,5.84-4.57c.77-.58,1.44-.36,2.17.33,4.76,4.52,9.57,9,14.37,13.47,3.57,3.32,7.17,6.62,10.78,9.95A10.58,10.58,0,0,1,466.3,485c.28-2.29.05-4.38-1.76-5.77a8.41,8.41,0,0,0-3.38-1.62,5.8,5.8,0,0,0-6,3.54,5.88,5.88,0,0,0,2,7.07C459,489.45,461.67,490.36,465.29,487.19Zm-22.47,1.94c-.23-9.39,3.45-16.7,10.28-22.63l-9.56-8.5c-1.69,1.46-3.38,2.7-4.81,4.18a40.26,40.26,0,0,0-8.08,12.67,26.77,26.77,0,0,0-2.33,11.9c0,.65,0,1.27.95,1.33,2.23.11,4.46.31,6.68.49Z" transform="translate(-363.79 -363.34)"/><path class="cls-1" d="M465.27,512.49c-3.59-2.43-6.15-2.65-8.33-.72a6.05,6.05,0,0,0-1.66,7.18,6.22,6.22,0,0,0,6.18,3.28c3.24-.65,4.74-2.83,5-7.22a8.66,8.66,0,0,1,4.53,4c-1.92,1.82-3.85,3.66-5.8,5.48-1.75,1.64-3.54,3.24-5.29,4.88q-5.33,4.95-10.62,9.91c-1.12,1-2.31,2-3.34,3.12a1.67,1.67,0,0,1-2.39.29,25.92,25.92,0,0,1-8.14-7.35c-4.15-5.53-7.05-11.62-7.74-18.58a43.47,43.47,0,0,1,.14-5.58c0-.61.29-.88,1-.95,5-.53,10.07-1.11,15.11-1.68l14.87-1.68c1.7-.2,3.4-.46,5.1-.69.66-.09,1.09,0,1.28.82C465.62,509.19,465.89,510.85,465.27,512.49Zm-22.46-1.76c-.26,0-.62,0-1,0-4.22.33-8.44.64-12.65,1a1.28,1.28,0,0,0-.83.89,20.52,20.52,0,0,0,0,3.84A36.64,36.64,0,0,0,434,531.41a30.48,30.48,0,0,0,9.72,10.24l9.42-8.39C446.24,527.31,442.62,520,442.81,510.73Z" transform="translate(-363.79 -363.34)"/><path class="cls-1" d="M529.65,480.76c3.63-3.34,7.16-6.59,10.68-9.85,2.61-2.43,5.19-4.88,7.78-7.32,2.28-2.13,4.58-4.24,6.83-6.4.77-.75,1.45-.52,2.22-.09a24.08,24.08,0,0,1,6.86,5.76,39.09,39.09,0,0,1,8.93,19,15,15,0,0,1-.1,6.88,1.35,1.35,0,0,1-.89.79c-5,.61-10,1.16-15,1.73l-15,1.69c-1.7.2-3.4.45-5.09.7a1,1,0,0,1-1.35-.92c-.42-1.79-.81-3.58-.27-5.16a25.8,25.8,0,0,0,4.39,1.69,4.87,4.87,0,0,0,4.45-1.6,5.87,5.87,0,0,0,1.1-7.05,5.8,5.8,0,0,0-6.41-2.89c-3.2.87-4.55,3-4.53,7.23A10.51,10.51,0,0,1,529.65,480.76Zm28.2,8.28c.3,0,.7,0,1.09,0,4.18-.32,8.36-.63,12.54-1a1.33,1.33,0,0,0,.82-1,46.85,46.85,0,0,0-.63-7,37.58,37.58,0,0,0-6.16-13.45,28.58,28.58,0,0,0-8.54-8.42l-9.41,8.38C554.43,472.47,558,479.76,557.85,489Z" transform="translate(-363.79 -363.34)"/><path class="cls-1" d="M534.26,515c.13,4.39,1.6,6.52,5,7.23a6.16,6.16,0,0,0,6.22-3.39,5.94,5.94,0,0,0-2-7.28c-2.14-1.44-4.86-1.9-8,1-.79-2.15-.27-4.17.39-6.16.06-.18.7-.28,1-.24,5,.54,10,1.11,15,1.68q9.4,1.06,18.8,2.16a8.27,8.27,0,0,0,1.18.19c.69,0,.92.29,1.09,1a17.68,17.68,0,0,1-.18,8,39.4,39.4,0,0,1-8.36,17.33,25.76,25.76,0,0,1-7.25,6.22,1.72,1.72,0,0,1-2.39-.31c-5.46-5.18-11-10.3-16.48-15.43-2.84-2.64-5.7-5.26-8.54-7.88A8.46,8.46,0,0,1,534.26,515Zm13.32,18.25q4.33,3.9,8.64,7.79a1.09,1.09,0,0,0,1.63.07c5-3.59,8.48-8.42,11.13-13.89,2.14-4.41,3.6-9,3.39-14,0-1.08-.25-1.54-1.47-1.59-2.75-.11-5.49-.47-8.23-.69-1.65-.13-3.31-.19-4.82-.27C558.05,520,554.44,527.29,547.58,533.25Z" transform="translate(-363.79 -363.34)"/><path class="cls-1" d="M494.14,464.34c-2.21.68-4.25,1.2-6.52.49a6.91,6.91,0,0,0,2.11-4.37,5.72,5.72,0,0,0-1.83-4.52A5.91,5.91,0,0,0,481,455c-2.31,1.4-3.56,4.07-2.95,6.3.91,3.32,2.9,4.62,7.27,4.65a10.72,10.72,0,0,1-4.07,4.61c-1.1-1.16-2.2-2.29-3.28-3.44L463.5,451.58c-2-2.11-3.9-4.24-5.89-6.32-.72-.75-.5-1.4-.09-2.14a24.57,24.57,0,0,1,5.91-7,37.93,37.93,0,0,1,18.91-8.77,43.1,43.1,0,0,1,6.53,0c.73,0,1.05.34,1.13,1.17.51,5,1.1,9.93,1.66,14.88q1.09,9.59,2.18,19.16C493.91,463.08,494,463.66,494.14,464.34Zm-4.7-22a3.49,3.49,0,0,0,.06-.67c-.33-4.34-.65-8.69-1-13a1.16,1.16,0,0,0-.84-.76,21.82,21.82,0,0,0-4,0,38.88,38.88,0,0,0-24.58,14.48,1.05,1.05,0,0,0,0,1.55q3.93,4.33,7.84,8.68C472.9,445.78,480.24,442.16,489.44,442.36Z" transform="translate(-363.79 -363.34)"/><path class="cls-1" d="M487.71,534.94c2.17-.74,4.22-.17,6.35.47-.17,1.83-.31,3.62-.51,5.4-.37,3.29-.78,6.57-1.17,9.86q-.81,6.78-1.61,13.56c-.28,2.41-.56,4.83-.77,7.26-.06.66-.34.83-.93,1-3.14.8-6.21.26-9.24-.46a38.12,38.12,0,0,1-18.43-10.25,41.83,41.83,0,0,1-4-5.37,1.34,1.34,0,0,1,.24-1.89q4.5-4.75,8.95-9.56,6.75-7.25,13.46-14.51l1.06-1.12a8.12,8.12,0,0,1,4.1,4.47c-4.48.34-6.59,1.79-7.22,5a6.21,6.21,0,0,0,3.27,6.19,6.06,6.06,0,0,0,7.26-1.74C490.37,541,490.11,538.37,487.71,534.94Zm1.82,22.46c-9.32.2-16.66-3.41-22.56-10.28l-2.24,2.48c-1.87,2.08-3.76,4.14-5.59,6.25a1.32,1.32,0,0,0-.2,1.19,43.39,43.39,0,0,0,3.85,4.58,38,38,0,0,0,10.83,7.23c4.29,2,8.74,3.33,13.55,3.06.92,0,1.32-.26,1.38-1.3.14-2.79.45-5.57.67-8.36C489.35,560.59,489.43,558.93,489.53,557.4Z" transform="translate(-363.79 -363.34)"/><path class="cls-1" d="M512.87,465.24l-6.27-.59c.18-2.1.3-3.88.5-5.66.29-2.57.63-5.14.94-7.72q.94-7.89,1.87-15.8c.28-2.34.58-4.68.75-7,.06-.87.47-1,1.16-1.19,3.18-.73,6.28-.15,9.36.6a38.31,38.31,0,0,1,18.17,10.23,39.37,39.37,0,0,1,3.74,5,1.67,1.67,0,0,1-.3,2.47c-4.48,4.69-8.89,9.44-13.31,14.19-3.19,3.42-6.36,6.87-9.53,10.31a3.79,3.79,0,0,0-.4.63,10.73,10.73,0,0,1-4.25-4.79c2.24.25,4.3.07,5.68-1.71a9,9,0,0,0,1.68-3.35c.5-2.27-1.27-5.13-3.45-6a6,6,0,0,0-7.12,1.86c-1.81,2.25-1.52,5,.86,8.14Zm-1.72-22.88c9.27-.2,16.62,3.4,22.56,10.31l8.39-9.43c-.17-.27-.27-.44-.38-.6a33.2,33.2,0,0,0-12.28-10.5c-5-2.63-10.13-4.57-15.89-4.29-1,0-1.37.33-1.43,1.4-.14,2.74-.46,5.48-.68,8.22C511.31,439.13,511.24,440.81,511.15,442.36Z" transform="translate(-363.79 -363.34)"/><path class="cls-1" d="M506.51,535.15l6.36-.62.16.41c-1.1,1.33-2.11,2.68-2.11,4.49a5.94,5.94,0,0,0,2,4.58,5.8,5.8,0,0,0,6.8.69,5.7,5.7,0,0,0,2.75-6.55c-.88-3-3-4.34-7.15-4.32a10.32,10.32,0,0,1,4.08-4.61c2.51,2.67,5,5.28,7.43,7.91s4.77,5.17,7.17,7.75c3,3.22,6,6.44,9,9.63.75.79.47,1.44.05,2.23a26.34,26.34,0,0,1-8.11,8.72,37,37,0,0,1-16.65,7,44.73,44.73,0,0,1-6.65,0c-.65,0-.95-.28-1-1-.52-5-1.11-10-1.67-15s-1.12-9.91-1.69-14.86C507.08,539.57,506.81,537.55,506.51,535.15Zm4.67,22.26c0,.23,0,.54,0,.86.32,4.26.64,8.52,1,12.78a1.12,1.12,0,0,0,.79.79,26.63,26.63,0,0,0,4.19,0,33.36,33.36,0,0,0,11.88-4,35,35,0,0,0,11.47-9.1c1.66-2.07,1.63-2.09-.14-4.08-.11-.12-.2-.25-.31-.37l-6.37-7.18C527.75,554,520.43,557.58,511.18,557.41Z" transform="translate(-363.79 -363.34)"/><path class="cls-1" d="M379.67,499.87c-.22,4.54-3.31,7.67-7.73,7.65a7.64,7.64,0,1,1,0-15.27C376,492.19,379.38,495,379.67,499.87Zm-4.25-1c-1.25-1.1-2.55-2.11-3.68-3.29-.68-.71-1.14-.72-1.74,0a6.86,6.86,0,0,0,0,8.79c.54.61,1,.72,1.67,0,1.15-1.21,2.45-2.27,3.68-3.38l.93.6v-3.34Z" transform="translate(-363.79 -363.34)"/><path class="cls-1" d="M500.29,636a7.49,7.49,0,0,1-7.59-7.66,7.64,7.64,0,1,1,15.27,0A7.51,7.51,0,0,1,500.29,636Zm-1.67-12.05.88,1.21c-1.25,1.19-2.45,2.36-3.68,3.5-.66.62-.46,1.15.12,1.59,3,2.25,5.88,2.2,8.82,0,.64-.48.71-1,0-1.66-1.21-1.14-2.28-2.44-3.38-3.66l.56-1Z" transform="translate(-363.79 -363.34)"/><path class="cls-1" d="M500.37,379.22c-4.57-.21-7.69-3.32-7.68-7.7a7.64,7.64,0,1,1,15.28.05C507.92,376.19,504.62,379,500.37,379.22Zm-1.8-3.37H502l-.61-.87c1.12-1.26,2.12-2.57,3.3-3.69.73-.7.71-1.16,0-1.75a6.88,6.88,0,0,0-8.8,0c-.63.56-.66,1,0,1.66,1.19,1.17,2.26,2.47,3.37,3.71Z" transform="translate(-363.79 -363.34)"/><path class="cls-1" d="M621,499.89c.29-4.8,3.54-7.67,7.74-7.64a7.64,7.64,0,1,1,0,15.27C624.53,507.55,621.27,504.66,621,499.89Zm4.57.9-.3.24c1.27,1.11,2.58,2.16,3.77,3.34.65.63,1.13.54,1.59-.05a6.62,6.62,0,0,0,0-8.89c-.47-.59-1-.62-1.59,0-1.17,1.19-2.47,2.25-3.74,3.38l-1-.64c0,.87,0,1.42,0,2a10.5,10.5,0,0,0,.2,1.12Z" transform="translate(-363.79 -363.34)"/><path class="cls-2" d="M489.34,574.56c.34,1.89.2,2.07-1.54,2.19a33.22,33.22,0,0,1-15.41-3,40.75,40.75,0,0,1-14.78-10.22,53,53,0,0,1-3.21-4.45.78.78,0,0,1,.29-1.28c.22-.1.8.22,1,.5a38,38,0,0,0,13,11.54,37.11,37.11,0,0,0,13.88,4.66A57,57,0,0,0,489.34,574.56Z" transform="translate(-363.79 -363.34)"/><path class="cls-2" d="M511.25,574.68a34.42,34.42,0,0,0,15.24-2.26,36.56,36.56,0,0,0,12.2-7.25c2.27-2.11,4.19-4.59,6.3-6.87a3.34,3.34,0,0,1,1-.53c.08.44.36,1,.21,1.32a22.06,22.06,0,0,1-6,7.26,43.15,43.15,0,0,1-19.51,9.8,44,44,0,0,1-7.88.57C511.16,576.76,511.08,576.55,511.25,574.68Z" transform="translate(-363.79 -363.34)"/><path class="cls-2" d="M575,510.87c1.9-.32,2.07-.18,2.18,1.57a33.36,33.36,0,0,1-3,15.29A40.79,40.79,0,0,1,564,542.62a35.4,35.4,0,0,1-4.6,3.22c-.23.15-.77-.19-1.17-.31.15-.32.21-.78.47-.95a40.07,40.07,0,0,0,16.31-27A57.08,57.08,0,0,0,575,510.87Z" transform="translate(-363.79 -363.34)"/><path class="cls-2" d="M511.28,425.09c-.25-1.84-.15-2,1.62-2.07a34,34,0,0,1,16.29,3.41,39.58,39.58,0,0,1,15.45,11.67,15.32,15.32,0,0,1,1.61,2.66c.15.3-.12.8-.19,1.22-.35-.15-.86-.2-1-.46a38.82,38.82,0,0,0-17.39-13.69A35.82,35.82,0,0,0,513,425C512.48,425,511.93,425.05,511.28,425.09Z" transform="translate(-363.79 -363.34)"/><path class="cls-2" d="M425.52,510.85a35.66,35.66,0,0,0,3,16.93,40,40,0,0,0,11.17,15.1c.73.61,1.57,1.08,2.31,1.69.25.21.31.64.46,1-.39.12-.93.46-1.17.31a26.52,26.52,0,0,1-4.34-3,43,43,0,0,1-13.38-25.42,28.36,28.36,0,0,1-.08-5.05C423.52,510.69,423.77,510.54,425.52,510.85Z" transform="translate(-363.79 -363.34)"/><path class="cls-2" d="M425.66,488.9c-1.92.32-2.08.18-2.19-1.56a33.26,33.26,0,0,1,3-15.42,40.89,40.89,0,0,1,10.32-14.86,33.85,33.85,0,0,1,4.51-3.13c.23-.15.77.2,1.16.31-.15.33-.21.78-.47,1a40.07,40.07,0,0,0-16.28,26.93A54.61,54.61,0,0,0,425.66,488.9Z" transform="translate(-363.79 -363.34)"/><path class="cls-2" d="M575.17,488.91c.54-9-2.14-17.1-7.25-24.45a34.82,34.82,0,0,0-9.27-9.28c-.25-.17-.3-.63-.45-1,.4-.11.94-.43,1.18-.28a27.25,27.25,0,0,1,4.35,2.95,43.24,43.24,0,0,1,12.65,21.64,30.22,30.22,0,0,1,.81,8.93C577.11,489.08,576.87,489.24,575.17,488.91Z" transform="translate(-363.79 -363.34)"/><path class="cls-2" d="M489.39,425.11a29.83,29.83,0,0,0-9.73.64A38.46,38.46,0,0,0,462,434.64a91.45,91.45,0,0,0-6.29,6.88c-.24.26-.7.31-1.06.46-.07-.42-.35-1-.18-1.22a27.08,27.08,0,0,1,2.89-4.24,43.49,43.49,0,0,1,21.29-12.6,30.17,30.17,0,0,1,9.17-.89C489.54,423.11,489.63,423.24,489.39,425.11Z" transform="translate(-363.79 -363.34)"/><path class="cls-1" d="M508.78,509.93a9,9,0,0,1-8.15-6.77,2.62,2.62,0,0,1,3.08-3,9.1,9.1,0,0,1,6.67,7.87C510.46,509.58,510.16,509.92,508.78,509.93Zm-5.55-7.52-.37.31c.25.77.48,1.55.76,2.31a1,1,0,0,0,1.47.6c.41-.17.94-.63,1-1a1.82,1.82,0,0,0-.61-1.45A9.33,9.33,0,0,0,503.23,502.41Zm5.9,6.15c-.1-1.16-.13-2.23-1.27-2.64a1.08,1.08,0,0,0-1.47,1.54C506.89,508.6,507.91,508.68,509.13,508.56Z" transform="translate(-363.79 -363.34)"/><path class="cls-1" d="M491.56,510c-.9.12-1.32-.48-1.27-1.57a8.8,8.8,0,0,1,6.85-8.19A2.53,2.53,0,0,1,500,503.1,8.88,8.88,0,0,1,491.56,510Zm6.24-7.21-.34-.34a12.06,12.06,0,0,0-2.3.83,1.59,1.59,0,0,0-.55,1.36,1.62,1.62,0,0,0,1,1A1.59,1.59,0,0,0,497,505,10.8,10.8,0,0,0,497.8,502.74Zm-6.17,5.85c1.21.07,2.23,0,2.69-1.21a1.47,1.47,0,0,0-.1-1.28,1.63,1.63,0,0,0-1.38-.2C491.68,506.35,491.56,507.38,491.63,508.59Z" transform="translate(-363.79 -363.34)"/><path class="cls-1" d="M508.77,489.85c1.36,0,1.65.31,1.62,1.72a9.13,9.13,0,0,1-6.78,8,2.66,2.66,0,0,1-3-3A9,9,0,0,1,508.77,489.85ZM502.83,497l.38.4a12.6,12.6,0,0,0,2.38-.91,1.58,1.58,0,0,0,.46-1.39,1.51,1.51,0,0,0-1-.94,1.46,1.46,0,0,0-1.27.47A13.6,13.6,0,0,0,502.83,497Zm6.2-5.8c-1.2-.1-2.24.06-2.71,1.25a1.42,1.42,0,0,0,.18,1.28,1.46,1.46,0,0,0,1.28.19C509,493.43,509.14,492.4,509,491.19Z" transform="translate(-363.79 -363.34)"/><path class="cls-1" d="M490.29,491.44c0-1.34.26-1.64,1.62-1.57a8.73,8.73,0,0,1,8.12,6.77,2.55,2.55,0,0,1-3,2.93A8.8,8.8,0,0,1,490.29,491.44Zm7.16,5.93.35-.35a11.41,11.41,0,0,0-.81-2.28,1.55,1.55,0,0,0-1.33-.58,1.6,1.6,0,0,0-1.05,1,1.57,1.57,0,0,0,.54,1.34A11.46,11.46,0,0,0,497.45,497.37Zm-5.82-6.18c-.08,1.21.07,2.24,1.26,2.71a1.43,1.43,0,0,0,1.28-.18,1.46,1.46,0,0,0,.18-1.28C493.89,491.24,492.85,491.09,491.63,491.19Z" transform="translate(-363.79 -363.34)"/><path class="cls-2" d="M482.36,528l11.95-12.82.28.17-1.38,3.22a19.18,19.18,0,0,1-4.72,7.13A8,8,0,0,1,482.36,528Z" transform="translate(-363.79 -363.34)"/><path class="cls-2" d="M515.62,493.86l12.82-11.93a7.87,7.87,0,0,1-2.28,6.1,19,19,0,0,1-7.13,4.72l-3.23,1.4Z" transform="translate(-363.79 -363.34)"/><path class="cls-2" d="M472.19,481.89,485,493.83l-.17.3-3.16-1.35a19.11,19.11,0,0,1-7.3-4.89A8.17,8.17,0,0,1,472.19,481.89Z" transform="translate(-363.79 -363.34)"/><path class="cls-2" d="M472.21,517.88a8.05,8.05,0,0,1,2.21-6,18.52,18.52,0,0,1,6.87-4.66l3.49-1.54.23.29C480.82,509.83,476.64,513.74,472.21,517.88Z" transform="translate(-363.79 -363.34)"/><path class="cls-2" d="M494.31,484.59l-11.94-12.81a8,8,0,0,1,6,2.18,19.09,19.09,0,0,1,4.82,7.2c.47,1.08.94,2.16,1.4,3.24Z" transform="translate(-363.79 -363.34)"/><path class="cls-2" d="M518.3,528a7.92,7.92,0,0,1-6.1-2.28,18.79,18.79,0,0,1-4.63-6.91c-.48-1.13-1-2.24-1.47-3.36l.3-.22Z" transform="translate(-363.79 -363.34)"/><path class="cls-2" d="M528.46,517.87,515.67,506l.22-.27c4.19,1.77,8.53,3.32,11.28,7.35A7.26,7.26,0,0,1,528.46,517.87Z" transform="translate(-363.79 -363.34)"/><path class="cls-2" d="M518.33,471.75l-11.94,12.81-.3-.17c.47-1.1,1-2.19,1.42-3.28a19.1,19.1,0,0,1,4.75-7.11A8.19,8.19,0,0,1,518.33,471.75Z" transform="translate(-363.79 -363.34)"/><path class="cls-2" d="M494.39,466.94c.34,2.91.68,5.72,1,8.53s.6,5.53.91,8.41C492.6,479.61,490.6,469.93,494.39,466.94Z" transform="translate(-363.79 -363.34)"/><path class="cls-2" d="M467.35,505.82l16.93-1.9C480.62,507.31,470.72,509.79,467.35,505.82Z" transform="translate(-363.79 -363.34)"/><path class="cls-2" d="M506.27,532.87c-.64-5.71-1.27-11.28-1.9-17C507.84,519.75,510.19,529.59,506.27,532.87Z" transform="translate(-363.79 -363.34)"/><path class="cls-2" d="M504.38,483.76c.62-5.56,1.24-11.13,1.89-16.88a4.9,4.9,0,0,1,.65.61c1.57,2.17,1.59,4.66,1.29,7.15a21.84,21.84,0,0,1-3.35,8.88,2.78,2.78,0,0,1-.27.33Z" transform="translate(-363.79 -363.34)"/><path class="cls-2" d="M496.28,516c-.61,5.56-1.23,11.13-1.88,16.92a8.1,8.1,0,0,1-.91-1c-1.3-2.09-1.31-4.43-1-6.74a22,22,0,0,1,3.28-8.8,2.56,2.56,0,0,1,.3-.37S496.11,516,496.28,516Z" transform="translate(-363.79 -363.34)"/><path class="cls-2" d="M516.46,495.84c5.83-4.37,14.31-5.25,16.78-1.88Z" transform="translate(-363.79 -363.34)"/><path class="cls-2" d="M484.29,495.85l-17.12-1.91a14.06,14.06,0,0,1,1.46-1.08,10.57,10.57,0,0,1,6.68-.83,22.64,22.64,0,0,1,8.05,2.94,8.62,8.62,0,0,1,.8.54S484.21,495.64,484.29,495.85Z" transform="translate(-363.79 -363.34)"/><path class="cls-2" d="M533.36,506.25a15.84,15.84,0,0,1-3.66,1.47c-4.9.69-9.23-1-13.24-3.78l16.72,1.86Z" transform="translate(-363.79 -363.34)"/><path class="cls-2" d="M590.45,410.93c1.6,2,1.52,4.24-.15,6.39C588.11,416,588.15,412.75,590.45,410.93Z" transform="translate(-363.79 -363.34)"/><path class="cls-2" d="M411.38,590a4,4,0,0,1,6.4-.26A4.76,4.76,0,0,1,411.38,590Z" transform="translate(-363.79 -363.34)"/><path class="cls-2" d="M590.44,588.84a4,4,0,0,1-.26-6.39A4.71,4.71,0,0,1,590.44,588.84Z" transform="translate(-363.79 -363.34)"/><path class="cls-2" d="M582.85,589.79a4,4,0,0,1,6.39.15C587.67,591.61,585,591.56,582.85,589.79Z" transform="translate(-363.79 -363.34)"/><path class="cls-2" d="M411.4,409.73a4.83,4.83,0,0,1,6.36.25A3.85,3.85,0,0,1,411.4,409.73Z" transform="translate(-363.79 -363.34)"/><path class="cls-2" d="M582.85,410a4.86,4.86,0,0,1,6.37-.29C587.94,412,584.76,412.2,582.85,410Z" transform="translate(-363.79 -363.34)"/><path class="cls-2" d="M410.23,410.94a4,4,0,0,1,.25,6.38A4.72,4.72,0,0,1,410.23,410.94Z" transform="translate(-363.79 -363.34)"/><path class="cls-2" d="M410.23,588.83a4.71,4.71,0,0,1,.24-6.37C412.56,584.18,412.48,587,410.23,588.83Z" transform="translate(-363.79 -363.34)"/><path class="cls-2" d="M417.38,418.14a4.92,4.92,0,0,1-6.07,0A4.55,4.55,0,0,1,417.38,418.14Z" transform="translate(-363.79 -363.34)"/><path class="cls-2" d="M583.35,418.14c1.26-1.54,4-1.55,6,0A4.82,4.82,0,0,1,583.35,418.14Z" transform="translate(-363.79 -363.34)"/><path class="cls-2" d="M418.57,589c-1.5-2-1.51-4.62-.06-6.05C420,584.08,420,587.24,418.57,589Z" transform="translate(-363.79 -363.34)"/><path class="cls-2" d="M583.31,581.64a4.88,4.88,0,0,1,6,0C587.74,583.14,584.72,583.19,583.31,581.64Z" transform="translate(-363.79 -363.34)"/><path class="cls-2" d="M411.28,581.64a4.91,4.91,0,0,1,6,0C416.13,583.17,413.36,583.21,411.28,581.64Z" transform="translate(-363.79 -363.34)"/><path class="cls-2" d="M418.55,410.87c1.35,1.26,1.5,4.45,0,6C417.06,415.6,417,412.83,418.55,410.87Z" transform="translate(-363.79 -363.34)"/><path class="cls-2" d="M582.07,416.9a4.88,4.88,0,0,1-.05-6C583.62,412.35,583.65,415.58,582.07,416.9Z" transform="translate(-363.79 -363.34)"/><path class="cls-2" d="M582.11,582.89c1.52,1.34,1.5,4.24,0,6C580.71,587.47,580.69,584.22,582.11,582.89Z" transform="translate(-363.79 -363.34)"/><path class="cls-2" d="M501.6,507.47c2.26.71,2.67,1.46,2.28,4.12C501.75,511.44,500.81,509.75,501.6,507.47Z" transform="translate(-363.79 -363.34)"/><path class="cls-2" d="M512.11,496.35c-.6,2.34-1.95,3-4.19,2.27C508.58,496.39,509.35,496,512.11,496.35Z" transform="translate(-363.79 -363.34)"/><path class="cls-2" d="M496.84,511.62c-.4-3-.37-2.94,2.17-4.18A2.77,2.77,0,0,1,496.84,511.62Z" transform="translate(-363.79 -363.34)"/><path class="cls-2" d="M492.82,498.65c-2.5.63-3.87-.13-4.21-2.27C491.65,496,491.51,496,492.82,498.65Z" transform="translate(-363.79 -363.34)"/><path class="cls-2" d="M507.86,501.15c2.47-.66,3.79.06,4.21,2.23C509.64,504,508.84,503.55,507.86,501.15Z" transform="translate(-363.79 -363.34)"/><path class="cls-2" d="M496.79,488.11c2.32.59,3,2,2.28,4.2C496.82,491.61,496.41,490.87,496.79,488.11Z" transform="translate(-363.79 -363.34)"/><path class="cls-2" d="M503.92,488.17c.24,3,0,3.32-2.31,4.16C500.8,490,501.69,488.4,503.92,488.17Z" transform="translate(-363.79 -363.34)"/><path class="cls-2" d="M492.82,501.16c-1.07,2.42-1.48,2.65-4.16,2.29C488.69,501.43,490.39,500.47,492.82,501.16Z" transform="translate(-363.79 -363.34)"/><path class="cls-2" d="M512.43,486.43a1.54,1.54,0,0,1,1.35,1.57,1.42,1.42,0,0,1-1.51,1.51,1.57,1.57,0,0,1-1.56-1.62A1.51,1.51,0,0,1,512.43,486.43Z" transform="translate(-363.79 -363.34)"/><path class="cls-2" d="M488.23,486.43c1.14,0,1.64.56,1.72,1.47a1.55,1.55,0,0,1-1.57,1.61,1.42,1.42,0,0,1-1.49-1.53A1.51,1.51,0,0,1,488.23,486.43Z" transform="translate(-363.79 -363.34)"/><path class="cls-2" d="M488.26,513.36a1.55,1.55,0,0,1-1.37-1.58,1.42,1.42,0,0,1,1.5-1.52,1.57,1.57,0,0,1,1.56,1.63A1.52,1.52,0,0,1,488.26,513.36Z" transform="translate(-363.79 -363.34)"/><path class="cls-2" d="M513.81,511.84a1.58,1.58,0,0,1-1.5,1.5,1.49,1.49,0,0,1-1.61-1.55,1.51,1.51,0,0,1,1.55-1.52C513.16,510.25,513.72,510.79,513.81,511.84Z" transform="translate(-363.79 -363.34)"/><path class="cls-2" d="M568.46,551.34c2-1.06,3.87-1.93,5.62-3,6.58-4.12,11.11-9.8,12.83-17.5a23.29,23.29,0,0,0-1.53-14.51l-.62-1.46,27.7,1.66a40.38,40.38,0,0,1,.21,5c-.95,12.08-5.47,22.89-11.84,33a62.29,62.29,0,0,1-9.64,12.06c-1.09,1-2.29,2-3.43,3-.53.46-.94.36-1.43-.13C580.41,563.45,574.47,557.44,568.46,551.34Z" transform="translate(-363.79 -363.34)"/><path class="cls-2" d="M415.89,484.94l-27.46-1.65a17.65,17.65,0,0,1-.28-7.2,64.1,64.1,0,0,1,4.5-17,79,79,0,0,1,14.47-23.58c1.74-1.92,3.8-3.54,5.7-5.3a.93.93,0,0,1,1.52.06c5.92,6,11.86,12,17.92,18.18l-3,1.47a28.67,28.67,0,0,0-13.4,12.93,23.49,23.49,0,0,0-.6,20.61C415.48,483.89,415.63,484.29,415.89,484.94Z" transform="translate(-363.79 -363.34)"/><path class="cls-2" d="M551.72,431.71c-.85-1.65-1.58-3.28-2.49-4.81a28.48,28.48,0,0,0-11.52-11.25,23.68,23.68,0,0,0-20.92-.82l-1.5.62c.55-9.23,1.09-18.29,1.65-27.67a43.08,43.08,0,0,1,4.86-.25c8.29.5,16,3.05,23.53,6.51A73.05,73.05,0,0,1,563,405.24c2.52,2.2,4.7,4.78,7,7.17.72.74.19,1.2-.31,1.69q-7.35,7.26-14.7,14.54C554,429.67,552.86,430.65,551.72,431.71Z" transform="translate(-363.79 -363.34)"/><path class="cls-2" d="M449,431.81c-1.53-1.46-2.95-2.8-4.34-4.17-4.57-4.5-9.12-9-13.7-13.5-.7-.69-.77-1.14-.11-2a54.64,54.64,0,0,1,11.72-10.74A80.89,80.89,0,0,1,469.51,389a36.16,36.16,0,0,1,12.81-1.3,12.87,12.87,0,0,1,1.42.3c.54,9.12,1.09,18.22,1.64,27.55-7.35-3.55-14.6-3.66-21.76-.19S452,424.57,449,431.81Z" transform="translate(-363.79 -363.34)"/><path class="cls-2" d="M388.44,516.48l27.5-1.65c-3.53,7.3-3.67,14.56-.22,21.71s9.23,11.62,16.55,14.67c-1.71,1.77-3.29,3.44-4.91,5.08-4.27,4.33-8.57,8.65-12.83,13-.67.68-1.08.72-1.87.1a53.51,53.51,0,0,1-10.83-11.8,81,81,0,0,1-12.45-26.94,36.28,36.28,0,0,1-1.29-12.58,3.87,3.87,0,0,1,0-.48C388.21,517.21,388.33,516.84,388.44,516.48Z" transform="translate(-363.79 -363.34)"/><path class="cls-2" d="M516.94,612c-.56-9.3-1.1-18.38-1.66-27.69,7.33,3.55,14.58,3.67,21.74.21s11.61-9.24,14.65-16.55c1.93,1.89,3.76,3.65,5.57,5.43,4.17,4.11,8.31,8.24,12.49,12.34.68.66.72,1.07.1,1.87a54,54,0,0,1-11.61,10.68A83,83,0,0,1,535.8,609.5a54.46,54.46,0,0,1-14.18,2.75A38.18,38.18,0,0,1,516.94,612Z" transform="translate(-363.79 -363.34)"/><path class="cls-2" d="M568.33,448.52l13-13.12c1.63-1.65,3.26-3.31,4.85-5,.57-.6,1-.66,1.7-.11a54.44,54.44,0,0,1,10.63,11.49A81.07,81.07,0,0,1,611.25,469a35.85,35.85,0,0,1,1.31,12.92c-.06.47-.2.93-.3,1.37l-27.53,1.65c3.53-7.31,3.66-14.57.21-21.73S575.7,451.61,568.33,448.52Z" transform="translate(-363.79 -363.34)"/><path class="cls-2" d="M449,567.91c3.06,7.28,7.56,13.12,14.62,16.54s14.41,3.4,21.79-.19c-.56,9.3-1.1,18.37-1.66,27.73a39.28,39.28,0,0,1-4.88.25c-8.41-.54-16.26-3.12-23.84-6.69a73.34,73.34,0,0,1-21.47-14.86c-1-1-1.85-2.19-2.82-3.26-.54-.6-.51-1,.09-1.61,3.78-3.69,7.53-7.42,11.29-11.14Z" transform="translate(-363.79 -363.34)"/><path class="cls-2" d="M522.71,499.79c2.61-.21,5.23-.39,7.84-.62,4.26-.37,8.51-.79,12.76-1.15,2.43-.21,4.86-.35,7.28-.56,4.26-.36,8.52-.78,12.77-1.14,2.55-.22,5.11-.34,7.65-.56,4.18-.36,8.34-.78,12.51-1.14,2.51-.21,5-.33,7.54-.55,4.17-.36,8.34-.76,12.51-1.17.91-.08,1.73,0,2,1a28.77,28.77,0,0,1,1.14,4.59,12.85,12.85,0,0,1-.9,6.95c-.71,1.53-1,1.51-2.71,1.3-2.66-.33-5.34-.43-8-.67-4.09-.36-8.17-.77-12.26-1.12-3.07-.27-6.14-.49-9.21-.74l-14.2-1.16c-5.33-.43-10.66-.84-16-1.29-5.5-.45-11-.93-16.48-1.41L522.7,500Z" transform="translate(-363.79 -363.34)"/><path class="cls-2" d="M478,500c-2.77.21-5.55.38-8.32.62-4.05.35-8.1.77-12.16,1.13-2.5.22-5,.35-7.52.57-4.22.36-8.43.77-12.65,1.13-2.54.22-5.1.34-7.64.56-4.17.36-8.34.78-12.51,1.14-2.51.22-5,.34-7.53.56q-6.27.54-12.52,1.16a1.78,1.78,0,0,1-2.1-1.09c-1.44-3.09-1.35-6.29-.79-9.52a13.79,13.79,0,0,1,.85-2.35,1.57,1.57,0,0,1,1.9-1c3.66.35,7.32.65,11,1,4.45.39,8.9.79,13.35,1.16,5.25.44,10.51.84,15.76,1.28q8.29.69,16.59,1.42c4.73.4,9.47.79,14.2,1.2,3.37.29,6.74.6,10.1.9Z" transform="translate(-363.79 -363.34)"/><path class="cls-2" d="M500.43,522.07c.21,2.77.39,5.35.62,7.92.37,4.3.79,8.59,1.16,12.89.21,2.42.34,4.85.55,7.27.37,4.26.78,8.52,1.15,12.78.21,2.54.33,5.1.55,7.64.36,4.18.78,8.34,1.14,12.51.22,2.47.34,4.95.56,7.41.36,4.22.76,8.43,1.15,12.64a1.73,1.73,0,0,1-1,2c-3.12,1.51-6.36,1.39-9.63.84a16.09,16.09,0,0,1-2.34-.86c-1-.36-1.08-1.13-1-2,.33-3.54.64-7.08,1-10.62.31-3.37.65-6.74.95-10.12.26-3,.46-6,.71-9q.58-7.21,1.19-14.44c.57-6.68,1.15-13.36,1.7-20.05.46-5.49.87-11,1.3-16.49C500.17,522.38,500.24,522.32,500.43,522.07Z" transform="translate(-363.79 -363.34)"/><path class="cls-2" d="M500.23,477.52c-.21-2.65-.39-5.31-.62-8-.36-4.21-.78-8.42-1.15-12.64-.21-2.5-.34-5-.55-7.52-.36-4.17-.78-8.35-1.14-12.53-.21-2.42-.34-4.86-.55-7.29-.37-4.32-.79-8.65-1.16-13-.22-2.51-.33-5-.55-7.53-.35-4.14-.75-8.28-1.15-12.41a1.73,1.73,0,0,1,1-2.05c3.12-1.52,6.36-1.38,9.63-.85a13.31,13.31,0,0,1,2.35.86c.92.33,1.11,1,1,1.9-.34,3.38-.67,6.76-1,10.14-.4,4.61-.75,9.22-1.13,13.83q-.64,8.06-1.31,16.12c-.46,5.53-.95,11.06-1.42,16.59-.41,4.74-.8,9.47-1.21,14.2-.29,3.38-.59,6.75-.88,10.12Z" transform="translate(-363.79 -363.34)"/><path class="cls-2" d="M442.82,489.13l-6.87-.56c-2.22-.18-4.45-.38-6.68-.49-1-.06-.92-.68-.95-1.33a26.77,26.77,0,0,1,2.33-11.9,40.26,40.26,0,0,1,8.08-12.67c1.43-1.48,3.12-2.72,4.81-4.18l9.56,8.5C446.27,472.43,442.59,479.74,442.82,489.13Z" transform="translate(-363.79 -363.34)"/><path class="cls-2" d="M442.81,510.73c-.19,9.29,3.43,16.58,10.3,22.53l-9.42,8.39A30.48,30.48,0,0,1,434,531.41a36.64,36.64,0,0,1-5.61-14.93,20.52,20.52,0,0,1,0-3.84,1.28,1.28,0,0,1,.83-.89c4.21-.38,8.43-.69,12.65-1C442.19,510.71,442.55,510.73,442.81,510.73Z" transform="translate(-363.79 -363.34)"/><path class="cls-2" d="M557.85,489c.19-9.28-3.42-16.57-10.29-22.53l9.41-8.38a28.58,28.58,0,0,1,8.54,8.42A37.58,37.58,0,0,1,571.67,480a46.85,46.85,0,0,1,.63,7,1.33,1.33,0,0,1-.82,1c-4.18.39-8.36.7-12.54,1C558.55,489.07,558.15,489,557.85,489Z" transform="translate(-363.79 -363.34)"/><path class="cls-2" d="M547.58,533.25c6.86-6,10.47-13.26,10.27-22.54,1.51.08,3.17.14,4.82.27,2.74.22,5.48.58,8.23.69,1.22.05,1.42.51,1.47,1.59.21,5-1.25,9.55-3.39,14-2.65,5.47-6.1,10.3-11.13,13.89a1.09,1.09,0,0,1-1.63-.07Q551.92,537.14,547.58,533.25Z" transform="translate(-363.79 -363.34)"/><path class="cls-2" d="M489.44,442.36c-9.2-.2-16.54,3.42-22.47,10.27q-3.9-4.33-7.84-8.68a1.05,1.05,0,0,1,0-1.55,38.88,38.88,0,0,1,24.58-14.48,21.82,21.82,0,0,1,4,0,1.16,1.16,0,0,1,.84.76c.38,4.33.7,8.68,1,13A3.49,3.49,0,0,1,489.44,442.36Z" transform="translate(-363.79 -363.34)"/><path class="cls-2" d="M489.53,557.4c-.1,1.53-.18,3.19-.31,4.85-.22,2.79-.53,5.57-.67,8.36-.06,1-.46,1.25-1.38,1.3-4.81.27-9.26-1.08-13.55-3.06a38,38,0,0,1-10.83-7.23,43.39,43.39,0,0,1-3.85-4.58,1.32,1.32,0,0,1,.2-1.19c1.83-2.11,3.72-4.17,5.59-6.25l2.24-2.48C472.87,554,480.21,557.6,489.53,557.4Z" transform="translate(-363.79 -363.34)"/><path class="cls-2" d="M511.15,442.36c.09-1.55.16-3.23.29-4.89.22-2.74.54-5.48.68-8.22.06-1.07.43-1.35,1.43-1.4,5.76-.28,10.93,1.66,15.89,4.29a33.2,33.2,0,0,1,12.28,10.5c.11.16.21.33.38.6l-8.39,9.43C527.77,445.76,520.42,442.16,511.15,442.36Z" transform="translate(-363.79 -363.34)"/><path class="cls-2" d="M511.18,557.41c9.25.17,16.57-3.39,22.53-10.3l6.37,7.18c.11.12.2.25.31.37,1.77,2,1.8,2,.14,4.08a35,35,0,0,1-11.47,9.1,33.36,33.36,0,0,1-11.88,4,26.63,26.63,0,0,1-4.19,0,1.12,1.12,0,0,1-.79-.79c-.38-4.26-.7-8.52-1-12.78C511.16,558,511.18,557.64,511.18,557.41Z" transform="translate(-363.79 -363.34)"/><path class="cls-2" d="M375.42,498.83l.88-.64v3.34l-.93-.6c-1.23,1.11-2.53,2.17-3.68,3.38-.68.71-1.13.6-1.67,0a6.86,6.86,0,0,1,0-8.79c.6-.69,1.06-.68,1.74,0C372.87,496.72,374.17,497.73,375.42,498.83Z" transform="translate(-363.79 -363.34)"/><path class="cls-2" d="M498.62,623.91h3.31l-.56,1c1.1,1.22,2.17,2.52,3.38,3.66.72.67.65,1.18,0,1.66-2.94,2.22-5.83,2.27-8.82,0-.58-.44-.78-1-.12-1.59,1.23-1.14,2.43-2.31,3.68-3.5Z" transform="translate(-363.79 -363.34)"/><path class="cls-2" d="M498.57,375.85l.72-.9c-1.11-1.24-2.18-2.54-3.37-3.71-.66-.65-.63-1.1,0-1.66a6.88,6.88,0,0,1,8.8,0c.69.59.71,1,0,1.75-1.18,1.12-2.18,2.43-3.3,3.69l.61.87Z" transform="translate(-363.79 -363.34)"/><path class="cls-2" d="M625.56,500.79l-1.06.48a10.5,10.5,0,0,1-.2-1.12c0-.54,0-1.09,0-2l1,.64c1.27-1.13,2.57-2.19,3.74-3.38.63-.64,1.12-.61,1.59,0a6.62,6.62,0,0,1,0,8.89c-.46.59-.94.68-1.59.05-1.19-1.18-2.5-2.23-3.77-3.34Z" transform="translate(-363.79 -363.34)"/><path class="cls-2" d="M503.23,502.41a9.33,9.33,0,0,1,2.21.78,1.82,1.82,0,0,1,.61,1.45c0,.36-.55.82-1,1a1,1,0,0,1-1.47-.6c-.28-.76-.51-1.54-.76-2.31Z" transform="translate(-363.79 -363.34)"/><path class="cls-2" d="M509.13,508.56c-1.22.12-2.24,0-2.74-1.1a1.08,1.08,0,0,1,1.47-1.54C509,506.33,509,507.4,509.13,508.56Z" transform="translate(-363.79 -363.34)"/><path class="cls-2" d="M497.8,502.74A10.8,10.8,0,0,1,497,505a1.59,1.59,0,0,1-1.34.58,1.62,1.62,0,0,1-1-1,1.59,1.59,0,0,1,.55-1.36,12.06,12.06,0,0,1,2.3-.83Z" transform="translate(-363.79 -363.34)"/><path class="cls-2" d="M491.63,508.59c-.07-1.21.05-2.24,1.21-2.69a1.63,1.63,0,0,1,1.38.2,1.47,1.47,0,0,1,.1,1.28C493.86,508.54,492.84,508.66,491.63,508.59Z" transform="translate(-363.79 -363.34)"/><path class="cls-2" d="M502.83,497a13.6,13.6,0,0,1,.94-2.37,1.46,1.46,0,0,1,1.27-.47,1.51,1.51,0,0,1,1,.94,1.58,1.58,0,0,1-.46,1.39,12.6,12.6,0,0,1-2.38.91Z" transform="translate(-363.79 -363.34)"/><path class="cls-2" d="M509,491.19c.11,1.21-.06,2.24-1.25,2.72a1.46,1.46,0,0,1-1.28-.19,1.42,1.42,0,0,1-.18-1.28C506.79,491.25,507.83,491.09,509,491.19Z" transform="translate(-363.79 -363.34)"/><path class="cls-2" d="M497.45,497.37a11.46,11.46,0,0,1-2.3-.85,1.57,1.57,0,0,1-.54-1.34,1.6,1.6,0,0,1,1.05-1,1.55,1.55,0,0,1,1.33.58,11.41,11.41,0,0,1,.81,2.28Z" transform="translate(-363.79 -363.34)"/><path class="cls-2" d="M491.63,491.19c1.22-.1,2.26.05,2.72,1.25a1.46,1.46,0,0,1-.18,1.28,1.43,1.43,0,0,1-1.28.18C491.7,493.43,491.55,492.4,491.63,491.19Z" transform="translate(-363.79 -363.34)"/></svg>