<?xml version="1.0" encoding="utf-8"?>
<!-- Generator: Adobe Illustrator 19.0.0, SVG Export Plug-In . SVG Version: 6.00 Build 0)  -->
<svg version="1.1" id="Layer_1" xmlns="http://www.w3.org/2000/svg" xmlns:xlink="http://www.w3.org/1999/xlink" x="0px" y="0px"
	 viewBox="702 51.1 1915.5 411.9" style="enable-background:new 702 51.1 1915.5 411.9;" xml:space="preserve">
<style type="text/css">
	.st0{fill:#251552;}
	.st1{fill:url(#SVGID_1_);}
	.st2{fill:url(#SVGID_2_);}
	.st3{fill:url(#SVGID_3_);}
	.st4{fill:url(#SVGID_4_);}
	.st5{fill:url(#SVGID_5_);}
	.st6{fill:url(#SVGID_6_);}
	.st7{fill:url(#SVGID_7_);}
</style>
<title>solsea_Logo_RGB_dark1</title>
<path class="st0" d="M1231,328.4h53c0,15.5,13.6,30.1,37.4,30.1c22.3,0,36.9-10.2,36.9-24.8c0-12.6-9.7-18.4-26.7-22.3l-30.1-7.8
	c-51-13.6-64.1-40.8-64.1-69.4c0-35.5,34.9-66.6,84.5-66.6c40.3,0,85.9,19.9,85.4,70.9h-53.9c0-16-14.1-25.7-30.1-25.7
	s-29.6,9.7-29.6,23.8c0,11.6,11.2,18.4,24.3,21.4l36.4,9.7c51,13.1,60.2,45.1,60.2,66c0,46.2-46.1,70.4-92.3,70.4
	C1276.1,404.1,1232,376.9,1231,328.4z"/>
<path class="st0" d="M1457.8,285.2c0-71.9,55.9-117.6,120.5-117.6s120.9,45.7,120.9,117.6s-56.3,118.9-120.9,118.9
	C1513.7,404.1,1457.8,357,1457.8,285.2z M1642.4,285.2c0-38.9-29.1-65.1-64.1-65.1s-63.6,26.2-63.6,65.1s28.6,66.5,63.6,66.5
	S1642.4,325,1642.4,285.2L1642.4,285.2z"/>
<path class="st0" d="M1757,51.1h56.3v348.2H1757V51.1z"/>
<path class="st0" d="M1869.7,328.4h52.9c0,15.5,13.6,30.1,37.4,30.1s36.9-10.2,36.9-24.8c0-12.6-9.7-18.4-26.7-22.3l-30.1-7.8
	c-51-13.6-64.1-40.8-64.1-69.4c0-35.5,34.9-66.6,84.5-66.6c40.3,0,85.9,19.9,85.5,70.9h-53.9c0-16-14.1-25.7-30.2-25.7
	s-29.6,9.7-29.6,23.8c0,11.6,11.2,18.4,24.3,21.4l36.4,9.7c51,13.1,60.2,45.1,60.2,66c0,46.2-46.1,70.4-92.2,70.4
	S1870.6,376.9,1869.7,328.4z"/>
<path class="st0" d="M2330.1,305.6h-175.4c6.4,31.5,30.6,47.5,64.1,47.5c24.8,0,48.1-9.7,61.7-28.1l37.4,28.6
	c-20.9,33.1-60.7,50.5-102,50.5c-68,0-119.4-47.6-119.4-118.5s54.4-118,118.9-118s116.1,45.2,116.1,116.1
	C2331.4,291,2331,298.3,2330.1,305.6z M2275.2,266.2c-3.4-31.1-27.2-49-58.8-49s-54.9,14.5-61.7,49H2275.2z"/>
<path class="st0" d="M2617.6,172.5v226.8h-56.4v-30.6c-15.5,24.3-47.6,35.4-75.3,35.4c-59.7,0-111.7-46.1-111.7-118.5
	s51.5-118,111.3-118c28.6,0,60.2,11.2,75.7,35v-30.1H2617.6z M2560.3,285.2c0-39.9-33.1-65.1-65.6-65.1c-35,0-63.6,27.2-63.6,65.1
	s28.6,66,63.6,66S2560.3,325,2560.3,285.2z"/>
<circle class="st0" cx="891.5" cy="273.5" r="189.5"/>
<radialGradient id="SVGID_1_" cx="939.46" cy="-89.1" r="126.67" gradientTransform="matrix(1 0 0 -1 -1.8 186.7)" gradientUnits="userSpaceOnUse">
	<stop  offset="0.31" style="stop-color:#1C1564"/>
	<stop  offset="0.32" style="stop-color:#1C1666"/>
	<stop  offset="0.63" style="stop-color:#262E97"/>
	<stop  offset="0.87" style="stop-color:#2C3CB6"/>
	<stop  offset="1" style="stop-color:#2E42C1"/>
</radialGradient>
<path class="st1" d="M990.9,385.7c14.8-17.2,22.9-39.1,22.8-61.7c0-50.7-39.5-91.8-88.1-91.8c-17.5,0-34.5,5.4-48.8,15.4
	c0,0,23.3-35.9,96.3-24.4c73,11.5,86.2,68.8,83.3,113.4c-10.4,27-27.2,51.1-49.1,70L990.9,385.7z"/>
<radialGradient id="SVGID_2_" cx="867.59" cy="-141.6218" r="145.13" gradientTransform="matrix(1 0 0 -0.88 -1.8 196.808)" gradientUnits="userSpaceOnUse">
	<stop  offset="0.4" style="stop-color:#1C1564"/>
	<stop  offset="0.41" style="stop-color:#1C1666"/>
	<stop  offset="0.68" style="stop-color:#262E97"/>
	<stop  offset="0.89" style="stop-color:#2C3CB6"/>
	<stop  offset="1" style="stop-color:#2E42C1"/>
</radialGradient>
<path class="st2" d="M1007.1,406.7L1007.1,406.7c-3.4,2.9-6.8,5.7-10.4,8.3c-78.2,58-188.8,41.6-246.8-36.6
	c-16.7-22.5-27.8-48.6-32.3-76.3l66.3,21.9c3.3,7.1,7.4,13.9,12.1,20.2c30.2,40.7,79.9,54.4,125.3,40.6l0,0
	c26.5-8.3,41.2-36.5,32.9-62.9c-6.5-20.9-25.8-35.1-47.7-35.2c-9.9,0-19.7,2.9-27.9,8.5c0,0,34.3-28,80.2-12.2
	c0,0,44,14.1,58.5,60.9C1031.8,390.7,1007.1,406.7,1007.1,406.7z"/>
<radialGradient id="SVGID_3_" cx="910.83" cy="46.13" r="200.31" gradientTransform="matrix(1 0 0 -1 -1.8 186.7)" gradientUnits="userSpaceOnUse">
	<stop  offset="0.31" style="stop-color:#1C1564"/>
	<stop  offset="0.32" style="stop-color:#1C1666"/>
	<stop  offset="0.63" style="stop-color:#262E97"/>
	<stop  offset="0.87" style="stop-color:#2C3CB6"/>
	<stop  offset="1" style="stop-color:#2E42C1"/>
</radialGradient>
<path class="st3" d="M1056.4,336c21.4-56.2,12.7-119.4-23.1-167.7l-1.8-2.2l-30.6-15.7l-106.9-19l-6.3,23.1
	c39-1.3,76.2,16.6,99.4,48c6.3,8.4,11.3,17.5,15.1,27.3l7,3.5l39.5,39.1l9.5,42l-1.6,18.6L1056.4,336z"/>
<linearGradient id="SVGID_4_" gradientUnits="userSpaceOnUse" x1="1109.8711" y1="51.5814" x2="1109.8711" y2="51.5814" gradientTransform="matrix(-0.33 0.94 -0.94 -0.33 1471.144 -689.5569)">
	<stop  offset="0" style="stop-color:#283FA3"/>
	<stop  offset="1" style="stop-color:#1B1464"/>
</linearGradient>
<path class="st4" d="M1056.4,336.7"/>
<linearGradient id="SVGID_5_" gradientUnits="userSpaceOnUse" x1="803.0538" y1="-50.5986" x2="1085.2838" y2="-111.6887" gradientTransform="matrix(1 0 0 -1 -1.8 186.7)">
	<stop  offset="0" style="stop-color:#46FFD7"/>
	<stop  offset="0.28" style="stop-color:#3ECFE7"/>
	<stop  offset="0.3" style="stop-color:#3DC5E5"/>
	<stop  offset="0.39" style="stop-color:#399CDC"/>
	<stop  offset="0.47" style="stop-color:#367ED6"/>
	<stop  offset="0.54" style="stop-color:#346CD2"/>
	<stop  offset="0.59" style="stop-color:#3365D1"/>
	<stop  offset="0.6" style="stop-color:#3465D1"/>
	<stop  offset="0.69" style="stop-color:#6469CB"/>
	<stop  offset="0.78" style="stop-color:#8A6CC6"/>
	<stop  offset="0.87" style="stop-color:#A66EC2"/>
	<stop  offset="0.94" style="stop-color:#B670C0"/>
	<stop  offset="1" style="stop-color:#BC70BF"/>
</linearGradient>
<path class="st5" d="M1056.4,336.6c19.8-63.2-15.3-130.5-78.5-150.3c-63.2-19.8-130.5,15.3-150.3,78.5c-6.9,22-7.3,45.5-1.2,67.7
	c5.6-63.4,61.5-110.3,125-104.8C1008.6,232.8,1053.4,279.2,1056.4,336.6z"/>
<linearGradient id="SVGID_6_" gradientUnits="userSpaceOnUse" x1="772.475" y1="-156.9828" x2="1015.995" y2="55.5572" gradientTransform="matrix(1 0 0 -1 -1.8 186.7)">
	<stop  offset="0" style="stop-color:#46FFD7"/>
	<stop  offset="0.31" style="stop-color:#3ECFE7"/>
	<stop  offset="0.72" style="stop-color:#3365D1"/>
	<stop  offset="0.77" style="stop-color:#3765D0"/>
	<stop  offset="0.82" style="stop-color:#4566CF"/>
	<stop  offset="0.87" style="stop-color:#5A68CC"/>
	<stop  offset="0.92" style="stop-color:#796BC8"/>
	<stop  offset="0.97" style="stop-color:#A06EC3"/>
	<stop  offset="1" style="stop-color:#BC70BF"/>
</linearGradient>
<path class="st6" d="M845.7,180.9c64.1-47.5,152.6-38.4,206,18.2c-5.1-10.8-11.2-21.1-18.3-30.7c-58-78.3-168.4-94.8-246.7-36.8
	S691.9,300,749.8,378.3c30.4,41,77,66.9,127.9,70.9c-79.1-33.4-116.2-124.6-82.8-203.7C805.7,219.8,823.3,197.5,845.7,180.9z"/>
<linearGradient id="SVGID_7_" gradientUnits="userSpaceOnUse" x1="888.8807" y1="-56.7738" x2="1055.8107" y2="-200.4637" gradientTransform="matrix(1 0 0 -1 -1.8 186.7)">
	<stop  offset="0" style="stop-color:#46FFD7"/>
	<stop  offset="0.28" style="stop-color:#3ECFE7"/>
	<stop  offset="0.3" style="stop-color:#3DC5E5"/>
	<stop  offset="0.39" style="stop-color:#399CDC"/>
	<stop  offset="0.47" style="stop-color:#367ED6"/>
	<stop  offset="0.54" style="stop-color:#346CD2"/>
	<stop  offset="0.59" style="stop-color:#3365D1"/>
	<stop  offset="0.6" style="stop-color:#3465D1"/>
	<stop  offset="0.69" style="stop-color:#6469CB"/>
	<stop  offset="0.78" style="stop-color:#8A6CC6"/>
	<stop  offset="0.87" style="stop-color:#A66EC2"/>
	<stop  offset="0.94" style="stop-color:#B670C0"/>
	<stop  offset="1" style="stop-color:#BC70BF"/>
</linearGradient>
<path class="st7" d="M1007,406.9c33.1-33.5,32.9-87.5-0.6-120.6c-29.9-29.6-76.8-33-110.6-8.1c-6.5,4.9-12.3,10.6-17.2,17.1
	c40.9-26.7,95.6-15.3,122.4,25.6C1017.8,346.5,1020.1,379.1,1007,406.9z"/>
</svg>
